<svg xmlns="http://www.w3.org/2000/svg" viewBox="0 0 900 390" role="img" aria-label="Out The Garage!">
<defs>
 <filter id="rough"><feTurbulence baseFrequency=".032" numOctaves="3" seed="11" result="n"/>
 <feDisplacementMap in="SourceGraphic" in2="n" scale="4"/></filter>
</defs>
<!-- restrained paint splatter -->
<g fill="#f7f7f4" opacity=".92">
 <circle cx="90" cy="85" r="7"/><circle cx="125" cy="55" r="4"/><circle cx="180" cy="292" r="5"/>
 <circle cx="505" cy="52" r="4"/><circle cx="600" cy="278" r="4"/>
</g>
<g fill="#20dfff" opacity=".95">
 <circle cx="735" cy="65" r="8"/><circle cx="800" cy="120" r="4"/><circle cx="825" cy="255" r="6"/>
 <circle cx="680" cy="290" r="4"/>
</g>
<g filter="url(#rough)" transform="translate(55 20) skewX(-7)">
 <text x="40" y="205" fill="#f7f7f4" stroke="#030506" stroke-width="18" paint-order="stroke"
 font-family="Arial Black,Arial,sans-serif" font-size="190" font-weight="900" letter-spacing="-15">OTG</text>
 <text x="620" y="205" fill="#20dfff" stroke="#030506" stroke-width="18" paint-order="stroke"
 font-family="Arial Black,Arial,sans-serif" font-size="190" font-weight="900">!</text>
</g>
<!-- paint drips -->
<g fill="#f7f7f4"><path d="M170 225v58h9v-58z"/><circle cx="174.5" cy="286" r="4.5"/>
<path d="M315 224v82h8v-82z"/><circle cx="319" cy="310" r="4"/>
<path d="M555 225v48h8v-48z"/></g>
<g fill="#20dfff"><path d="M735 220v92h9v-92z"/><circle cx="739.5" cy="316" r="4.5"/>
<path d="M790 218v57h7v-57z"/></g>
<text x="450" y="326" text-anchor="middle" fill="#20dfff" font-family="Arial,Helvetica,sans-serif"
 font-size="31" font-weight="800" letter-spacing="7">OUT THE GARAGE!</text>
<text x="450" y="366" text-anchor="middle" fill="#ffffff" font-family="Arial,Helvetica,sans-serif"
 font-size="18" font-weight="700" letter-spacing="6">DRIVE • RECORD • IMPROVE</text>
</svg>